<?xml version="1.0" encoding="UTF-8"?>
<svg version="1.1" viewBox="0 0 18 24" xmlns="http://www.w3.org/2000/svg" xmlns:cc="http://creativecommons.org/ns#" xmlns:dc="http://purl.org/dc/elements/1.1/" xmlns:rdf="http://www.w3.org/1999/02/22-rdf-syntax-ns#" xmlns:xlink="http://www.w3.org/1999/xlink"><title>Shield</title><defs><linearGradient id="linearGradient4172" x1="3" x2="3" y1="23.957" y2=".014475" gradientTransform="translate(-3)" gradientUnits="userSpaceOnUse"><stop stop-color="#0099e5" offset="0"/><stop stop-color="#4cc3ff" offset="1"/></linearGradient></defs><path d="m9 4.942c1.827 1.105 3.474 1.6 5 1.833v7.76c0 1.606-0.415 1.935-5 4.76zm9-1.942v11.535c0 4.603-3.203 5.804-9 9.465-5.797-3.661-9-4.862-9-9.465v-11.535c3.516 0 5.629-0.134 9-3 3.371 2.866 5.484 3 9 3zm-2 1.96c-2.446-0.124-4.5-0.611-7-2.416-2.5 1.805-4.554 2.292-7 2.416v9.575c0 3.042 1.69 3.83 7 7.107 5.313-3.281 7-4.065 7-7.107z" fill="url(#linearGradient4172)"/><metadata><rdf:RDF><cc:Work rdf:about=""><dc:title>Shield</dc:title></cc:Work></rdf:RDF></metadata></svg>
